<svg width="44" height="68" viewBox="0 0 44 68" fill="none" xmlns="http://www.w3.org/2000/svg">
<path d="M21.8733 0C9.8124 0 0 9.8124 0 21.8733C0 40.2945 20.1492 66.4708 21.0067 67.5761C21.2122 67.8406 21.5265 67.997 21.8612 68C21.865 68 21.8688 68 21.8733 68C22.2035 68 22.5171 67.8504 22.7248 67.5943C23.5832 66.5365 43.7474 41.4634 43.7474 21.8733C43.7474 9.8124 33.9343 0 21.8733 0ZM21.8907 65.0994C18.0132 59.8476 2.19338 37.4627 2.19338 21.8733C2.19338 11.022 11.0213 2.19338 21.8733 2.19338C32.7254 2.19338 41.554 11.022 41.554 21.8733C41.5533 38.4321 25.8015 60.0009 21.8907 65.0994Z" fill="#60A946"/>
</svg>
