<svg width="24" height="31" viewBox="0 0 24 31" fill="none" xmlns="http://www.w3.org/2000/svg">
<path d="M10.018 24.7664C10.018 20.2664 10.018 15.7997 10.018 11.2997C10.018 10.333 8.51904 10.333 8.51904 11.2997C8.51904 15.7997 8.51904 20.2664 8.51904 24.7664C8.51904 25.733 10.018 25.733 10.018 24.7664Z" fill="#60A946"/>
<path d="M15.4811 24.7664C15.4811 20.2664 15.4811 15.7997 15.4811 11.2997C15.4811 10.333 13.9822 10.333 13.9822 11.2997C13.9822 15.7997 13.9822 20.2664 13.9822 24.7664C13.9822 25.733 15.4811 25.733 15.4811 24.7664Z" fill="#60A946"/>
<path d="M16.3803 0.566345H7.61971C6.22068 0.566345 5.08813 1.69968 5.08813 3.09968V5.23301C3.62248 5.23301 2.19015 5.23301 0.724497 5.23301C-0.241499 5.23301 -0.241499 6.73301 0.724497 6.73301C1.12422 6.73301 1.52394 6.73301 1.92366 6.73301V28.033C1.92366 29.433 3.05621 30.5663 4.45524 30.5663H19.5448C20.9438 30.5663 22.0763 29.433 22.0763 28.033V6.73301C22.4761 6.73301 22.8758 6.73301 23.2755 6.73301C24.2415 6.73301 24.2415 5.23301 23.2755 5.23301C21.8099 5.23301 20.3775 5.23301 18.9119 5.23301V3.09968C18.9119 1.69968 17.7793 0.566345 16.3803 0.566345ZM6.58709 3.09968C6.58709 2.53301 7.05344 2.06635 7.61971 2.06635H16.3803C16.9466 2.06635 17.4129 2.53301 17.4129 3.09968V5.23301C13.7821 5.23301 10.1846 5.23301 6.55378 5.23301V3.09968H6.58709ZM20.5774 28.033C20.5774 28.5997 20.111 29.0663 19.5448 29.0663H4.45524C3.88897 29.0663 3.42262 28.5997 3.42262 28.033V6.73301C9.15198 6.73301 14.8813 6.73301 20.6107 6.73301V28.033H20.5774Z" fill="#60A946"/>
</svg>
