<svg width="71" height="68" viewBox="0 0 71 68" fill="none" xmlns="http://www.w3.org/2000/svg">
<path d="M71 18.4407H66.4194C66.4194 15.3839 65.2128 12.4524 63.0653 10.291C60.9177 8.12954 58.0049 6.91525 54.9677 6.91525H34.3548V0H20.6129V6.91525H11.4516C8.41446 6.91525 5.50169 8.12954 3.3541 10.291C1.20651 12.4524 0 15.3839 0 18.4407V48.4068H25.1935V68H27.4839V48.4068H66.4194V39.1864H67.5645L71 18.4407ZM68.2516 20.7458L65.5719 36.8814H54.9677V20.7458H68.2516ZM22.9032 2.30508H32.0645V9.22034H22.9032V2.30508ZM2.29032 46.1017V18.4407C2.29032 15.9953 3.25553 13.6501 4.9736 11.9209C6.69168 10.1918 9.02189 9.22034 11.4516 9.22034H20.6129V11.5254H32.0645V19.5932H34.3548V9.22034H48.0968C46.6745 10.2939 45.5202 11.686 44.7251 13.2864C43.93 14.8867 43.5161 16.6514 43.5161 18.4407V46.1017H2.29032ZM64.129 46.1017H45.8064V18.4407C45.8064 15.9953 46.7717 13.6501 48.4897 11.9209C50.2078 10.1918 52.538 9.22034 54.9677 9.22034C57.3975 9.22034 59.7277 10.1918 61.4458 11.9209C63.1638 13.6501 64.129 15.9953 64.129 18.4407H52.6774V39.1864H64.129V46.1017Z" fill="#60A946"/>
</svg>
