<svg width="331" height="80" viewBox="0 0 331 80" fill="none" xmlns="http://www.w3.org/2000/svg">
<path d="M125.172 52.125C124.932 52.0417 124.417 52 123.625 52H114.688C114.146 52 113.708 51.9167 113.375 51.75C113.052 51.5729 112.891 51.2552 112.891 50.7969C112.891 50.474 112.974 50.2083 113.141 50C113.536 50.1042 113.911 50.1562 114.266 50.1562C114.62 50.1562 114.953 50.1198 115.266 50.0469C115.578 49.974 115.875 49.8438 116.156 49.6562C116.823 49.2292 117.177 48.5781 117.219 47.7031V30.3281H115.188C113.677 30.3281 112.688 30.401 112.219 30.5469C111.76 30.6823 111.411 30.8594 111.172 31.0781C110.943 31.2969 110.755 31.5938 110.609 31.9688C110.349 32.6146 110.146 33.7292 110 35.3125C109.771 35.3646 109.562 35.3906 109.375 35.3906C108.958 35.3906 108.693 35.2812 108.578 35.0625C108.464 34.8438 108.385 34.6198 108.344 34.3906C108.302 34.151 108.271 33.8906 108.25 33.6094C108.208 33.0469 108.188 32.4479 108.188 31.8125C108.188 30.0729 108.323 28.9688 108.594 28.5C108.865 28 109.406 27.75 110.219 27.75C110.375 27.75 110.604 27.7656 110.906 27.7969C111.208 27.8281 111.646 27.8646 112.219 27.9062C113.771 28 115.63 28.0469 117.797 28.0469H120.438C123.458 28.0469 125.479 28 126.5 27.9062C127.521 27.8021 128.156 27.75 128.406 27.75C128.656 27.75 128.885 27.7865 129.094 27.8594C129.302 27.9323 129.469 28.0365 129.594 28.1719C129.792 28.401 129.891 28.6875 129.891 29.0312C129.891 29.5521 129.875 29.9688 129.844 30.2812C129.812 30.5938 129.776 30.9635 129.734 31.3906C129.703 31.8177 129.656 32.2604 129.594 32.7188C129.448 33.8021 129.266 34.5469 129.047 34.9531C128.839 35.2448 128.583 35.3906 128.281 35.3906C127.99 35.3906 127.729 35.3646 127.5 35.3125L127.516 34.3281C127.516 33.401 127.464 32.6719 127.359 32.1406C127.255 31.599 127.036 31.1979 126.703 30.9375C126.37 30.6667 125.891 30.5 125.266 30.4375C124.641 30.3646 123.807 30.3281 122.766 30.3281H120.891V48.3125C120.891 49.0625 121.49 49.5833 122.688 49.875C122.979 49.9375 123.255 49.9948 123.516 50.0469C123.786 50.099 124.047 50.1562 124.297 50.2188C124.547 50.2708 124.755 50.3385 124.922 50.4219C125.255 50.5885 125.422 50.8698 125.422 51.2656C125.422 51.6302 125.339 51.9167 125.172 52.125ZM140.984 52.0781C140.776 52.026 140.443 52 139.984 52H135C134 52 133.359 51.8229 133.078 51.4688C132.964 51.3333 132.906 51.1771 132.906 51C132.906 50.5625 132.99 50.2396 133.156 50.0312C133.406 50.1146 133.693 50.1562 134.016 50.1562C134.339 50.1562 134.578 50.026 134.734 49.7656C134.891 49.5052 134.964 49.0208 134.953 48.3125V28.9531C134.953 28.2344 134.88 27.7708 134.734 27.5625C134.516 27.2292 134.13 27.0625 133.578 27.0625H133.266C133.172 27.0625 133.062 27.0781 132.938 27.1094C132.823 27.1302 132.724 27.1198 132.641 27.0781C132.557 27.026 132.484 26.9583 132.422 26.875C132.203 26.5521 132.453 26.1146 133.172 25.5625C134.224 24.7604 135.297 24.3594 136.391 24.3594C137.578 24.3594 138.245 25 138.391 26.2812C138.432 26.6667 138.453 27.0729 138.453 27.5V36.0156C140.026 34.6927 141.708 33.7708 143.5 33.25C144.156 33.0521 144.818 32.9531 145.484 32.9531C146.161 32.9531 146.802 33.0417 147.406 33.2188C148.021 33.3958 148.547 33.6823 148.984 34.0781C149.943 34.9323 150.422 36.2344 150.422 37.9844V48.4688C150.422 49.3333 150.714 49.8646 151.297 50.0625C151.464 50.125 151.661 50.1771 151.891 50.2188C152.12 50.2604 152.323 50.3125 152.5 50.375C152.688 50.4271 152.833 50.4896 152.938 50.5625C153.115 50.6979 153.203 50.9167 153.203 51.2188C153.203 51.5938 153.125 51.8802 152.969 52.0781C152.75 52.026 152.417 52 151.969 52H146.984C145.984 52 145.344 51.8229 145.062 51.4688C144.948 51.3333 144.891 51.1771 144.891 51C144.891 50.5521 144.969 50.2292 145.125 50.0312C145.385 50.1146 145.667 50.1562 145.969 50.1562C146.271 50.1562 146.5 50.0469 146.656 49.8281C146.823 49.6094 146.917 49.2083 146.938 48.625V39.0938C146.938 37.3229 146.411 36.3333 145.359 36.125C145.036 36.0625 144.63 36.0312 144.141 36.0312C143.661 36.0312 143.13 36.1042 142.547 36.25C141.974 36.3958 141.432 36.5833 140.922 36.8125C139.911 37.2708 139.089 37.8177 138.453 38.4531V48.4688C138.453 49.3333 138.745 49.8646 139.328 50.0625C139.495 50.125 139.693 50.1771 139.922 50.2188C140.151 50.2604 140.354 50.3125 140.531 50.375C140.719 50.4271 140.865 50.4896 140.969 50.5625C141.146 50.6979 141.234 50.9167 141.234 51.2188C141.234 51.5833 141.151 51.8698 140.984 52.0781ZM155.344 43.5938C155.344 42.3333 155.474 41.2135 155.734 40.2344C155.995 39.2552 156.344 38.3802 156.781 37.6094C157.229 36.8281 157.75 36.1458 158.344 35.5625C158.948 34.9792 159.594 34.4948 160.281 34.1094C161.635 33.3385 162.969 32.9531 164.281 32.9531C165.594 32.9531 166.646 33.1875 167.438 33.6562C168.229 34.1146 168.875 34.7292 169.375 35.5C170.302 36.9688 170.766 38.9219 170.766 41.3594C170.766 42.2656 170.385 42.7292 169.625 42.75L158.719 42.9844C158.781 45.2448 159.365 46.9167 160.469 48C161.406 48.9167 162.62 49.375 164.109 49.375C166.328 49.375 168.13 48.9115 169.516 47.9844C169.609 47.9844 169.724 48.0625 169.859 48.2188C170.12 48.5312 170.25 48.8021 170.25 49.0312C170.25 49.5312 169.625 50.1719 168.375 50.9531C166.938 51.849 165.26 52.2969 163.344 52.2969C160.844 52.2969 158.88 51.5 157.453 49.9062C156.047 48.3438 155.344 46.2396 155.344 43.5938ZM158.812 40.9688C161.812 40.8229 164.557 40.6302 167.047 40.3906C167.161 37.0781 166.016 35.4219 163.609 35.4219C162.266 35.4219 161.167 35.9427 160.312 36.9844C159.531 37.9427 159.031 39.2708 158.812 40.9688ZM182.891 52.0781C182.672 52.026 182.339 52 181.891 52H176.594C175.594 52 174.953 51.8229 174.672 51.4688C174.557 51.3333 174.5 51.1771 174.5 51C174.5 50.5625 174.583 50.2396 174.75 50.0312C175 50.1146 175.229 50.1562 175.438 50.1562C175.656 50.1562 175.839 50.1302 175.984 50.0781C176.13 50.0156 176.245 49.9167 176.328 49.7812C176.474 49.5312 176.547 49.0417 176.547 48.3125V38.0938C176.547 37.1146 176.365 36.5052 176 36.2656C175.854 36.1719 175.661 36.125 175.422 36.125C175.182 36.125 174.99 36.1615 174.844 36.2344C174.708 36.3073 174.594 36.3594 174.5 36.3906C174.417 36.4219 174.344 36.4219 174.281 36.3906C174.219 36.349 174.156 36.2917 174.094 36.2188C173.938 36.0312 173.859 35.8542 173.859 35.6875C173.859 35.5104 173.922 35.3229 174.047 35.125C174.182 34.9167 174.396 34.6823 174.688 34.4219C174.979 34.151 175.312 33.9062 175.688 33.6875C176.531 33.1979 177.375 32.9531 178.219 32.9531C179.177 32.9531 179.745 33.5781 179.922 34.8281C179.974 35.1927 180.005 35.5729 180.016 35.9688C181.536 34.625 183.104 33.7031 184.719 33.2031C185.26 33.0365 185.75 32.9531 186.188 32.9531C186.635 32.9531 187 33.0156 187.281 33.1406C187.573 33.2656 187.802 33.4375 187.969 33.6562C188.281 34.0833 188.438 34.6302 188.438 35.2969C188.438 35.9635 188.406 36.4948 188.344 36.8906C188.281 37.2865 188.203 37.6354 188.109 37.9375C187.922 38.5521 187.745 38.9427 187.578 39.1094C187.286 39.4115 186.896 39.5625 186.406 39.5625C185.906 39.5625 185.656 39.4167 185.656 39.125C185.656 38.0104 185.609 37.2969 185.516 36.9844C185.339 36.4115 185.005 36.125 184.516 36.125C184.026 36.125 183.583 36.1823 183.188 36.2969C182.792 36.401 182.406 36.5469 182.031 36.7344C181.271 37.1094 180.604 37.5938 180.031 38.1875V48.5781C180.062 49.401 180.422 49.901 181.109 50.0781C181.307 50.1302 181.531 50.1771 181.781 50.2188C182.031 50.2604 182.245 50.3125 182.422 50.375C182.609 50.4271 182.755 50.4896 182.859 50.5625C183.036 50.6979 183.125 50.9167 183.125 51.2188C183.125 51.5938 183.047 51.8802 182.891 52.0781ZM199.094 52.0781C198.885 52.026 198.552 52 198.094 52H193.109C192.109 52 191.469 51.8229 191.188 51.4688C191.073 51.3333 191.016 51.1771 191.016 51C191.016 50.5625 191.099 50.2396 191.266 50.0312C191.516 50.1146 191.797 50.1562 192.109 50.1562C192.432 50.1562 192.672 50.026 192.828 49.7656C192.995 49.5052 193.073 49.0208 193.062 48.3125V38.0938C193.062 37.1146 192.88 36.5052 192.516 36.2656C192.37 36.1719 192.177 36.125 191.938 36.125C191.698 36.125 191.505 36.1615 191.359 36.2344C191.224 36.3073 191.109 36.3594 191.016 36.3906C190.932 36.4219 190.859 36.4219 190.797 36.3906C190.734 36.349 190.672 36.2917 190.609 36.2188C190.453 36.0521 190.375 35.8802 190.375 35.7031C190.375 35.5156 190.438 35.3229 190.562 35.125C190.698 34.9167 190.911 34.6823 191.203 34.4219C191.495 34.151 191.828 33.9062 192.203 33.6875C193.047 33.1979 193.891 32.9531 194.734 32.9531C195.661 32.9531 196.219 33.5417 196.406 34.7188C196.469 35.0729 196.51 35.4375 196.531 35.8125C198.094 34.5729 199.729 33.7083 201.438 33.2188C202.062 33.0417 202.667 32.9531 203.25 32.9531C205.729 32.9531 207.297 33.9323 207.953 35.8906C209.578 34.599 211.229 33.7083 212.906 33.2188C213.542 33.0417 214.188 32.9531 214.844 32.9531C215.5 32.9531 216.13 33.0417 216.734 33.2188C217.349 33.3958 217.875 33.6823 218.312 34.0781C219.271 34.9323 219.75 36.2344 219.75 37.9844V48.4688C219.75 49.3229 220.042 49.8542 220.625 50.0625C220.792 50.125 220.99 50.1771 221.219 50.2188C221.448 50.2604 221.656 50.3125 221.844 50.375C222.031 50.4271 222.177 50.4896 222.281 50.5625C222.458 50.6979 222.547 50.9167 222.547 51.2188C222.547 51.5833 222.464 51.8698 222.297 52.0781C222.089 52.026 221.755 52 221.297 52H216.312C215.312 52 214.672 51.8229 214.391 51.4688C214.276 51.3333 214.219 51.1771 214.219 51C214.219 50.5625 214.302 50.2396 214.469 50.0312C214.719 50.1146 214.995 50.1562 215.297 50.1562C215.599 50.1562 215.828 50.0573 215.984 49.8594C216.151 49.651 216.245 49.2708 216.266 48.7188V39.0938C216.266 37.3229 215.74 36.3333 214.688 36.125C214.365 36.0625 213.979 36.0312 213.531 36.0312C213.094 36.0312 212.615 36.0885 212.094 36.2031C211.583 36.3073 211.094 36.4531 210.625 36.6406C209.719 37.0052 208.927 37.4688 208.25 38.0312V48.4688C208.25 49.3333 208.542 49.8646 209.125 50.0625C209.292 50.125 209.49 50.1771 209.719 50.2188C209.948 50.2604 210.151 50.3125 210.328 50.375C210.516 50.4271 210.661 50.4896 210.766 50.5625C210.943 50.6979 211.031 50.9167 211.031 51.2188C211.031 51.5938 210.953 51.8802 210.797 52.0781C210.589 52.026 210.255 52 209.797 52H204.812C203.812 52 203.172 51.8229 202.891 51.4688C202.776 51.3333 202.719 51.1771 202.719 51C202.719 50.5521 202.797 50.2292 202.953 50.0312C203.214 50.1146 203.495 50.1562 203.797 50.1562C204.099 50.1562 204.328 50.0469 204.484 49.8281C204.651 49.6094 204.745 49.2083 204.766 48.625V39.0938C204.766 37.3229 204.24 36.3333 203.188 36.125C202.865 36.0625 202.474 36.0312 202.016 36.0312C201.557 36.0312 201.057 36.0938 200.516 36.2188C199.974 36.3438 199.458 36.5104 198.969 36.7188C198.031 37.1042 197.224 37.5938 196.547 38.1875V48.4688C196.547 49.3229 196.844 49.8542 197.438 50.0625C197.594 50.125 197.786 50.1771 198.016 50.2188C198.245 50.2604 198.453 50.3125 198.641 50.375C198.828 50.4271 198.974 50.4896 199.078 50.5625C199.255 50.6979 199.344 50.9167 199.344 51.2188C199.344 51.5833 199.26 51.8698 199.094 52.0781ZM224.766 43.375C224.766 42.1042 224.891 40.9635 225.141 39.9531C225.391 38.9427 225.734 38.0521 226.172 37.2812C226.609 36.5104 227.125 35.8542 227.719 35.3125C228.312 34.7604 228.948 34.3125 229.625 33.9688C230.948 33.2917 232.401 32.9531 233.984 32.9531C236.016 32.9531 237.74 33.6927 239.156 35.1719C240.729 36.7969 241.516 38.9427 241.516 41.6094C241.516 45.1094 240.562 47.8333 238.656 49.7812C237 51.4583 235.016 52.2969 232.703 52.2969C230.286 52.2969 228.349 51.4479 226.891 49.75C225.474 48.1146 224.766 45.9896 224.766 43.375ZM233.625 49.75C234.323 49.75 234.948 49.5885 235.5 49.2656C236.052 48.9323 236.521 48.4792 236.906 47.9062C237.677 46.7188 238.062 45.1771 238.062 43.2812C238.062 41.1979 237.656 39.4271 236.844 37.9688C235.927 36.2917 234.609 35.4531 232.891 35.4531C231.505 35.4531 230.396 35.9844 229.562 37.0469C228.677 38.1719 228.234 39.7448 228.234 41.7656C228.234 44.2969 228.792 46.2969 229.906 47.7656C230.906 49.0885 232.146 49.75 233.625 49.75ZM255.344 52.1562L250.156 51.9844H246.203C245.661 51.9844 245.208 51.8958 244.844 51.7188C244.479 51.5312 244.297 51.3021 244.297 51.0312C244.297 50.5312 244.375 50.1823 244.531 49.9844C244.885 50.0885 245.26 50.1406 245.656 50.1406C246.052 50.1406 246.375 50.1146 246.625 50.0625C246.885 50.0104 247.115 49.901 247.312 49.7344C247.771 49.3594 248 48.7083 248 47.7812V31.8594C248 30.8906 247.411 30.2865 246.234 30.0469C245.484 29.8906 245 29.724 244.781 29.5469C244.573 29.3594 244.469 29.1562 244.469 28.9375C244.469 28.4583 244.552 28.1354 244.719 27.9688C244.906 28.0208 245.083 28.0469 245.25 28.0469C245.25 28.0469 246.797 28.0469 249.891 28.0469C250.37 28.0469 251.016 28.0208 251.828 27.9688C252.651 27.9167 253.792 27.8906 255.25 27.8906C256.719 27.8906 258.031 28.026 259.188 28.2969C260.354 28.5677 261.312 28.9479 262.062 29.4375C263.5 30.3854 264.219 31.7188 264.219 33.4375C264.219 35.3958 263.396 36.9792 261.75 38.1875C261.135 38.6354 260.349 39.0208 259.391 39.3438C262.464 39.5938 264.438 40.7708 265.312 42.875C265.583 43.5521 265.719 44.3594 265.719 45.2969C265.719 46.224 265.505 47.125 265.078 48C264.651 48.8646 264.005 49.6042 263.141 50.2188C261.349 51.5104 258.75 52.1562 255.344 52.1562ZM251.641 38.7188L254 38.7344C254.469 38.7344 255.026 38.7344 255.672 38.7344C256.328 38.7344 256.969 38.6198 257.594 38.3906C258.219 38.151 258.74 37.8333 259.156 37.4375C260.01 36.625 260.438 35.5833 260.438 34.3125C260.438 32.8646 260.083 31.8021 259.375 31.125C258.542 30.3021 257.099 29.8906 255.047 29.8906C253.651 29.8906 252.781 30.0208 252.438 30.2812C252.104 30.5417 251.885 30.849 251.781 31.2031C251.688 31.5469 251.641 32 251.641 32.5625V38.7188ZM255.406 40.7969C253.708 40.7969 252.453 40.8073 251.641 40.8281V48.2344C251.641 49.2865 252.328 49.875 253.703 50C254.13 50.0312 254.724 50.0469 255.484 50.0469C256.245 50.0469 257.042 49.9688 257.875 49.8125C258.708 49.6562 259.427 49.3906 260.031 49.0156C261.292 48.224 261.922 46.9688 261.922 45.25C261.922 42.2812 259.75 40.7969 255.406 40.7969ZM277.453 52.0781C277.234 52.026 276.901 52 276.453 52H271.156C270.156 52 269.516 51.8229 269.234 51.4688C269.12 51.3333 269.062 51.1771 269.062 51C269.062 50.5625 269.146 50.2396 269.312 50.0312C269.562 50.1146 269.792 50.1562 270 50.1562C270.219 50.1562 270.401 50.1302 270.547 50.0781C270.693 50.0156 270.807 49.9167 270.891 49.7812C271.036 49.5312 271.109 49.0417 271.109 48.3125V38.0938C271.109 37.1146 270.927 36.5052 270.562 36.2656C270.417 36.1719 270.224 36.125 269.984 36.125C269.745 36.125 269.552 36.1615 269.406 36.2344C269.271 36.3073 269.156 36.3594 269.062 36.3906C268.979 36.4219 268.906 36.4219 268.844 36.3906C268.781 36.349 268.719 36.2917 268.656 36.2188C268.5 36.0312 268.422 35.8542 268.422 35.6875C268.422 35.5104 268.484 35.3229 268.609 35.125C268.745 34.9167 268.958 34.6823 269.25 34.4219C269.542 34.151 269.875 33.9062 270.25 33.6875C271.094 33.1979 271.938 32.9531 272.781 32.9531C273.74 32.9531 274.307 33.5781 274.484 34.8281C274.536 35.1927 274.568 35.5729 274.578 35.9688C276.099 34.625 277.667 33.7031 279.281 33.2031C279.823 33.0365 280.312 32.9531 280.75 32.9531C281.198 32.9531 281.562 33.0156 281.844 33.1406C282.135 33.2656 282.365 33.4375 282.531 33.6562C282.844 34.0833 283 34.6302 283 35.2969C283 35.9635 282.969 36.4948 282.906 36.8906C282.844 37.2865 282.766 37.6354 282.672 37.9375C282.484 38.5521 282.307 38.9427 282.141 39.1094C281.849 39.4115 281.458 39.5625 280.969 39.5625C280.469 39.5625 280.219 39.4167 280.219 39.125C280.219 38.0104 280.172 37.2969 280.078 36.9844C279.901 36.4115 279.568 36.125 279.078 36.125C278.589 36.125 278.146 36.1823 277.75 36.2969C277.354 36.401 276.969 36.5469 276.594 36.7344C275.833 37.1094 275.167 37.5938 274.594 38.1875V48.5781C274.625 49.401 274.984 49.901 275.672 50.0781C275.87 50.1302 276.094 50.1771 276.344 50.2188C276.594 50.2604 276.807 50.3125 276.984 50.375C277.172 50.4271 277.318 50.4896 277.422 50.5625C277.599 50.6979 277.688 50.9167 277.688 51.2188C277.688 51.5938 277.609 51.8802 277.453 52.0781ZM285.25 43.5938C285.25 42.3333 285.38 41.2135 285.641 40.2344C285.901 39.2552 286.25 38.3802 286.688 37.6094C287.135 36.8281 287.656 36.1458 288.25 35.5625C288.854 34.9792 289.5 34.4948 290.188 34.1094C291.542 33.3385 292.875 32.9531 294.188 32.9531C295.5 32.9531 296.552 33.1875 297.344 33.6562C298.135 34.1146 298.781 34.7292 299.281 35.5C300.208 36.9688 300.672 38.9219 300.672 41.3594C300.672 42.2656 300.292 42.7292 299.531 42.75L288.625 42.9844C288.688 45.2448 289.271 46.9167 290.375 48C291.312 48.9167 292.526 49.375 294.016 49.375C296.234 49.375 298.036 48.9115 299.422 47.9844C299.516 47.9844 299.63 48.0625 299.766 48.2188C300.026 48.5312 300.156 48.8021 300.156 49.0312C300.156 49.5312 299.531 50.1719 298.281 50.9531C296.844 51.849 295.167 52.2969 293.25 52.2969C290.75 52.2969 288.786 51.5 287.359 49.9062C285.953 48.3438 285.25 46.2396 285.25 43.5938ZM288.719 40.9688C291.719 40.8229 294.464 40.6302 296.953 40.3906C297.068 37.0781 295.922 35.4219 293.516 35.4219C292.172 35.4219 291.073 35.9427 290.219 36.9844C289.438 37.9427 288.938 39.2708 288.719 40.9688ZM309.531 41.3438L309.516 45.4531C309.516 47.1719 309.604 48.2083 309.781 48.5625C309.958 48.9062 310.167 49.1146 310.406 49.1875C310.646 49.25 310.953 49.2812 311.328 49.2812C311.703 49.2812 312.042 49.2552 312.344 49.2031C312.656 49.1406 312.948 49.0625 313.219 48.9688C313.49 48.875 313.75 48.7708 314 48.6562L314.766 48.3281C314.943 48.2656 315.141 48.4479 315.359 48.875C315.422 48.9896 315.453 49.125 315.453 49.2812C315.453 49.4271 315.391 49.6198 315.266 49.8594C315.141 50.099 314.896 50.375 314.531 50.6875C314.177 50.9896 313.76 51.2604 313.281 51.5C312.24 52.0312 311.302 52.2969 310.469 52.2969C309.646 52.2969 308.974 52.25 308.453 52.1562C307.932 52.0625 307.49 51.875 307.125 51.5938C306.375 51.0104 306 49.9427 306 48.3906V36.0938H304.453C304.13 36.0938 303.896 35.9896 303.75 35.7812C303.5 35.4583 303.375 35.1875 303.375 34.9688C303.375 34.6042 303.464 34.401 303.641 34.3594C305.297 34.0781 306.469 32.849 307.156 30.6719C307.354 30.0156 307.51 29.2396 307.625 28.3438C308.125 28.2604 308.5 28.2188 308.75 28.2188C309.01 28.2188 309.234 28.349 309.422 28.6094C309.609 28.8698 309.698 29.1719 309.688 29.5156C309.688 29.8594 309.682 30.1823 309.672 30.4844C309.661 30.7865 309.651 31.1146 309.641 31.4688L309.578 33.6562H314.984C315.12 33.8958 315.188 34.151 315.188 34.4219V34.9062C315.188 35.3438 314.953 35.7031 314.484 35.9844C314.016 36.2552 313.495 36.3906 312.922 36.3906C312.359 36.3906 311.953 36.3854 311.703 36.375C311.464 36.3542 311.229 36.3333 311 36.3125L310.312 36.2188C310.073 36.1979 309.818 36.1771 309.547 36.1562V36.3281L309.531 41.3438ZM323.406 41.3438L323.391 45.4531C323.391 47.1719 323.479 48.2083 323.656 48.5625C323.833 48.9062 324.042 49.1146 324.281 49.1875C324.521 49.25 324.828 49.2812 325.203 49.2812C325.578 49.2812 325.917 49.2552 326.219 49.2031C326.531 49.1406 326.823 49.0625 327.094 48.9688C327.365 48.875 327.625 48.7708 327.875 48.6562L328.641 48.3281C328.818 48.2656 329.016 48.4479 329.234 48.875C329.297 48.9896 329.328 49.125 329.328 49.2812C329.328 49.4271 329.266 49.6198 329.141 49.8594C329.016 50.099 328.771 50.375 328.406 50.6875C328.052 50.9896 327.635 51.2604 327.156 51.5C326.115 52.0312 325.177 52.2969 324.344 52.2969C323.521 52.2969 322.849 52.25 322.328 52.1562C321.807 52.0625 321.365 51.875 321 51.5938C320.25 51.0104 319.875 49.9427 319.875 48.3906V36.0938H318.328C318.005 36.0938 317.771 35.9896 317.625 35.7812C317.375 35.4583 317.25 35.1875 317.25 34.9688C317.25 34.6042 317.339 34.401 317.516 34.3594C319.172 34.0781 320.344 32.849 321.031 30.6719C321.229 30.0156 321.385 29.2396 321.5 28.3438C322 28.2604 322.375 28.2188 322.625 28.2188C322.885 28.2188 323.109 28.349 323.297 28.6094C323.484 28.8698 323.573 29.1719 323.562 29.5156C323.562 29.8594 323.557 30.1823 323.547 30.4844C323.536 30.7865 323.526 31.1146 323.516 31.4688L323.453 33.6562H328.859C328.995 33.8958 329.062 34.151 329.062 34.4219V34.9062C329.062 35.3438 328.828 35.7031 328.359 35.9844C327.891 36.2552 327.37 36.3906 326.797 36.3906C326.234 36.3906 325.828 36.3854 325.578 36.375C325.339 36.3542 325.104 36.3333 324.875 36.3125L324.188 36.2188C323.948 36.1979 323.693 36.1771 323.422 36.1562V36.3281L323.406 41.3438Z" fill="black"/>
<circle cx="40" cy="40" r="40" fill="#60A946"/>
<path d="M8.35547 64.4701L20.5289 50.6022C18.3049 49.5006 16.1918 48.2162 14.2104 46.7692L26.9496 32.7011C25.3809 31.9119 23.8925 30.9849 22.4999 29.9358L39.9999 10L57.4999 29.9358C56.1073 30.9849 54.6189 31.9119 53.0502 32.7011L65.7894 46.7692C63.808 48.2162 61.6949 49.5006 59.4709 50.6022L71.6443 64.4701C64.3279 73.9178 52.8741 80 39.9999 80C27.1256 80 15.6719 73.9178 8.35547 64.4701Z" fill="white"/>
</svg>
