<svg width="223" height="40" viewBox="0 0 223 40" fill="none" xmlns="http://www.w3.org/2000/svg">
<path d="M68.6289 29.0938C68.4492 29.0312 68.0625 29 67.4688 29H60.7656C60.3594 29 60.0312 28.9375 59.7812 28.8125C59.5391 28.6797 59.418 28.4414 59.418 28.0977C59.418 27.8555 59.4805 27.6562 59.6055 27.5C59.9023 27.5781 60.1836 27.6172 60.4492 27.6172C60.7148 27.6172 60.9648 27.5898 61.1992 27.5352C61.4336 27.4805 61.6562 27.3828 61.8672 27.2422C62.3672 26.9219 62.6328 26.4336 62.6641 25.7773V12.7461H61.1406C60.0078 12.7461 59.2656 12.8008 58.9141 12.9102C58.5703 13.0117 58.3086 13.1445 58.1289 13.3086C57.957 13.4727 57.8164 13.6953 57.707 13.9766C57.5117 14.4609 57.3594 15.2969 57.25 16.4844C57.0781 16.5234 56.9219 16.543 56.7812 16.543C56.4688 16.543 56.2695 16.4609 56.1836 16.2969C56.0977 16.1328 56.0391 15.9648 56.0078 15.793C55.9766 15.6133 55.9531 15.418 55.9375 15.207C55.9062 14.7852 55.8906 14.3359 55.8906 13.8594C55.8906 12.5547 55.9922 11.7266 56.1953 11.375C56.3984 11 56.8047 10.8125 57.4141 10.8125C57.5312 10.8125 57.7031 10.8242 57.9297 10.8477C58.1562 10.8711 58.4844 10.8984 58.9141 10.9297C60.0781 11 61.4727 11.0352 63.0977 11.0352H65.0781C67.3438 11.0352 68.8594 11 69.625 10.9297C70.3906 10.8516 70.8672 10.8125 71.0547 10.8125C71.2422 10.8125 71.4141 10.8398 71.5703 10.8945C71.7266 10.9492 71.8516 11.0273 71.9453 11.1289C72.0938 11.3008 72.168 11.5156 72.168 11.7734C72.168 12.1641 72.1562 12.4766 72.1328 12.7109C72.1094 12.9453 72.082 13.2227 72.0508 13.543C72.0273 13.8633 71.9922 14.1953 71.9453 14.5391C71.8359 15.3516 71.6992 15.9102 71.5352 16.2148C71.3789 16.4336 71.1875 16.543 70.9609 16.543C70.7422 16.543 70.5469 16.5234 70.375 16.4844L70.3867 15.7461C70.3867 15.0508 70.3477 14.5039 70.2695 14.1055C70.1914 13.6992 70.0273 13.3984 69.7773 13.2031C69.5273 13 69.168 12.875 68.6992 12.8281C68.2305 12.7734 67.6055 12.7461 66.8242 12.7461H65.418V26.2344C65.418 26.7969 65.8672 27.1875 66.7656 27.4062C66.9844 27.4531 67.1914 27.4961 67.3867 27.5352C67.5898 27.5742 67.7852 27.6172 67.9727 27.6641C68.1602 27.7031 68.3164 27.7539 68.4414 27.8164C68.6914 27.9414 68.8164 28.1523 68.8164 28.4492C68.8164 28.7227 68.7539 28.9375 68.6289 29.0938ZM80.4883 29.0586C80.332 29.0195 80.082 29 79.7383 29H76C75.25 29 74.7695 28.8672 74.5586 28.6016C74.4727 28.5 74.4297 28.3828 74.4297 28.25C74.4297 27.9219 74.4922 27.6797 74.6172 27.5234C74.8047 27.5859 75.0195 27.6172 75.2617 27.6172C75.5039 27.6172 75.6836 27.5195 75.8008 27.3242C75.918 27.1289 75.9727 26.7656 75.9648 26.2344V11.7148C75.9648 11.1758 75.9102 10.8281 75.8008 10.6719C75.6367 10.4219 75.3477 10.2969 74.9336 10.2969H74.6992C74.6289 10.2969 74.5469 10.3086 74.4531 10.332C74.3672 10.3477 74.293 10.3398 74.2305 10.3086C74.168 10.2695 74.1133 10.2188 74.0664 10.1562C73.9023 9.91406 74.0898 9.58594 74.6289 9.17188C75.418 8.57031 76.2227 8.26953 77.043 8.26953C77.9336 8.26953 78.4336 8.75 78.543 9.71094C78.5742 10 78.5898 10.3047 78.5898 10.625V17.0117C79.7695 16.0195 81.0312 15.3281 82.375 14.9375C82.8672 14.7891 83.3633 14.7148 83.8633 14.7148C84.3711 14.7148 84.8516 14.7812 85.3047 14.9141C85.7656 15.0469 86.1602 15.2617 86.4883 15.5586C87.207 16.1992 87.5664 17.1758 87.5664 18.4883V26.3516C87.5664 27 87.7852 27.3984 88.2227 27.5469C88.3477 27.5938 88.4961 27.6328 88.668 27.6641C88.8398 27.6953 88.9922 27.7344 89.125 27.7812C89.2656 27.8203 89.375 27.8672 89.4531 27.9219C89.5859 28.0234 89.6523 28.1875 89.6523 28.4141C89.6523 28.6953 89.5938 28.9102 89.4766 29.0586C89.3125 29.0195 89.0625 29 88.7266 29H84.9883C84.2383 29 83.7578 28.8672 83.5469 28.6016C83.4609 28.5 83.418 28.3828 83.418 28.25C83.418 27.9141 83.4766 27.6719 83.5938 27.5234C83.7891 27.5859 84 27.6172 84.2266 27.6172C84.4531 27.6172 84.625 27.5352 84.7422 27.3711C84.8672 27.207 84.9375 26.9062 84.9531 26.4688V19.3203C84.9531 17.9922 84.5586 17.25 83.7695 17.0938C83.5273 17.0469 83.2227 17.0234 82.8555 17.0234C82.4961 17.0234 82.0977 17.0781 81.6602 17.1875C81.2305 17.2969 80.8242 17.4375 80.4414 17.6094C79.6836 17.9531 79.0664 18.3633 78.5898 18.8398V26.3516C78.5898 27 78.8086 27.3984 79.2461 27.5469C79.3711 27.5938 79.5195 27.6328 79.6914 27.6641C79.8633 27.6953 80.0156 27.7344 80.1484 27.7812C80.2891 27.8203 80.3984 27.8672 80.4766 27.9219C80.6094 28.0234 80.6758 28.1875 80.6758 28.4141C80.6758 28.6875 80.6133 28.9023 80.4883 29.0586ZM91.2578 22.6953C91.2578 21.75 91.3555 20.9102 91.5508 20.1758C91.7461 19.4414 92.0078 18.7852 92.3359 18.207C92.6719 17.6211 93.0625 17.1094 93.5078 16.6719C93.9609 16.2344 94.4453 15.8711 94.9609 15.582C95.9766 15.0039 96.9766 14.7148 97.9609 14.7148C98.9453 14.7148 99.7344 14.8906 100.328 15.2422C100.922 15.5859 101.406 16.0469 101.781 16.625C102.477 17.7266 102.824 19.1914 102.824 21.0195C102.824 21.6992 102.539 22.0469 101.969 22.0625L93.7891 22.2383C93.8359 23.9336 94.2734 25.1875 95.1016 26C95.8047 26.6875 96.7148 27.0312 97.832 27.0312C99.4961 27.0312 100.848 26.6836 101.887 25.9883C101.957 25.9883 102.043 26.0469 102.145 26.1641C102.34 26.3984 102.438 26.6016 102.438 26.7734C102.438 27.1484 101.969 27.6289 101.031 28.2148C99.9531 28.8867 98.6953 29.2227 97.2578 29.2227C95.3828 29.2227 93.9102 28.625 92.8398 27.4297C91.7852 26.2578 91.2578 24.6797 91.2578 22.6953ZM93.8594 20.7266C96.1094 20.6172 98.168 20.4727 100.035 20.293C100.121 17.8086 99.2617 16.5664 97.457 16.5664C96.4492 16.5664 95.625 16.957 94.9844 17.7383C94.3984 18.457 94.0234 19.4531 93.8594 20.7266ZM111.918 29.0586C111.754 29.0195 111.504 29 111.168 29H107.195C106.445 29 105.965 28.8672 105.754 28.6016C105.668 28.5 105.625 28.3828 105.625 28.25C105.625 27.9219 105.688 27.6797 105.812 27.5234C106 27.5859 106.172 27.6172 106.328 27.6172C106.492 27.6172 106.629 27.5977 106.738 27.5586C106.848 27.5117 106.934 27.4375 106.996 27.3359C107.105 27.1484 107.16 26.7812 107.16 26.2344V18.5703C107.16 17.8359 107.023 17.3789 106.75 17.1992C106.641 17.1289 106.496 17.0938 106.316 17.0938C106.137 17.0938 105.992 17.1211 105.883 17.1758C105.781 17.2305 105.695 17.2695 105.625 17.293C105.562 17.3164 105.508 17.3164 105.461 17.293C105.414 17.2617 105.367 17.2188 105.32 17.1641C105.203 17.0234 105.145 16.8906 105.145 16.7656C105.145 16.6328 105.191 16.4922 105.285 16.3438C105.387 16.1875 105.547 16.0117 105.766 15.8164C105.984 15.6133 106.234 15.4297 106.516 15.2656C107.148 14.8984 107.781 14.7148 108.414 14.7148C109.133 14.7148 109.559 15.1836 109.691 16.1211C109.73 16.3945 109.754 16.6797 109.762 16.9766C110.902 15.9688 112.078 15.2773 113.289 14.9023C113.695 14.7773 114.062 14.7148 114.391 14.7148C114.727 14.7148 115 14.7617 115.211 14.8555C115.43 14.9492 115.602 15.0781 115.727 15.2422C115.961 15.5625 116.078 15.9727 116.078 16.4727C116.078 16.9727 116.055 17.3711 116.008 17.668C115.961 17.9648 115.902 18.2266 115.832 18.4531C115.691 18.9141 115.559 19.207 115.434 19.332C115.215 19.5586 114.922 19.6719 114.555 19.6719C114.18 19.6719 113.992 19.5625 113.992 19.3438C113.992 18.5078 113.957 17.9727 113.887 17.7383C113.754 17.3086 113.504 17.0938 113.137 17.0938C112.77 17.0938 112.438 17.1367 112.141 17.2227C111.844 17.3008 111.555 17.4102 111.273 17.5508C110.703 17.832 110.203 18.1953 109.773 18.6406V26.4336C109.797 27.0508 110.066 27.4258 110.582 27.5586C110.73 27.5977 110.898 27.6328 111.086 27.6641C111.273 27.6953 111.434 27.7344 111.566 27.7812C111.707 27.8203 111.816 27.8672 111.895 27.9219C112.027 28.0234 112.094 28.1875 112.094 28.4141C112.094 28.6953 112.035 28.9102 111.918 29.0586ZM124.07 29.0586C123.914 29.0195 123.664 29 123.32 29H119.582C118.832 29 118.352 28.8672 118.141 28.6016C118.055 28.5 118.012 28.3828 118.012 28.25C118.012 27.9219 118.074 27.6797 118.199 27.5234C118.387 27.5859 118.598 27.6172 118.832 27.6172C119.074 27.6172 119.254 27.5195 119.371 27.3242C119.496 27.1289 119.555 26.7656 119.547 26.2344V18.5703C119.547 17.8359 119.41 17.3789 119.137 17.1992C119.027 17.1289 118.883 17.0938 118.703 17.0938C118.523 17.0938 118.379 17.1211 118.27 17.1758C118.168 17.2305 118.082 17.2695 118.012 17.293C117.949 17.3164 117.895 17.3164 117.848 17.293C117.801 17.2617 117.754 17.2188 117.707 17.1641C117.59 17.0391 117.531 16.9102 117.531 16.7773C117.531 16.6367 117.578 16.4922 117.672 16.3438C117.773 16.1875 117.934 16.0117 118.152 15.8164C118.371 15.6133 118.621 15.4297 118.902 15.2656C119.535 14.8984 120.168 14.7148 120.801 14.7148C121.496 14.7148 121.914 15.1562 122.055 16.0391C122.102 16.3047 122.133 16.5781 122.148 16.8594C123.32 15.9297 124.547 15.2812 125.828 14.9141C126.297 14.7812 126.75 14.7148 127.188 14.7148C129.047 14.7148 130.223 15.4492 130.715 16.918C131.934 15.9492 133.172 15.2812 134.43 14.9141C134.906 14.7812 135.391 14.7148 135.883 14.7148C136.375 14.7148 136.848 14.7812 137.301 14.9141C137.762 15.0469 138.156 15.2617 138.484 15.5586C139.203 16.1992 139.562 17.1758 139.562 18.4883V26.3516C139.562 26.9922 139.781 27.3906 140.219 27.5469C140.344 27.5938 140.492 27.6328 140.664 27.6641C140.836 27.6953 140.992 27.7344 141.133 27.7812C141.273 27.8203 141.383 27.8672 141.461 27.9219C141.594 28.0234 141.66 28.1875 141.66 28.4141C141.66 28.6875 141.598 28.9023 141.473 29.0586C141.316 29.0195 141.066 29 140.723 29H136.984C136.234 29 135.754 28.8672 135.543 28.6016C135.457 28.5 135.414 28.3828 135.414 28.25C135.414 27.9219 135.477 27.6797 135.602 27.5234C135.789 27.5859 135.996 27.6172 136.223 27.6172C136.449 27.6172 136.621 27.543 136.738 27.3945C136.863 27.2383 136.934 26.9531 136.949 26.5391V19.3203C136.949 17.9922 136.555 17.25 135.766 17.0938C135.523 17.0469 135.234 17.0234 134.898 17.0234C134.57 17.0234 134.211 17.0664 133.82 17.1523C133.438 17.2305 133.07 17.3398 132.719 17.4805C132.039 17.7539 131.445 18.1016 130.938 18.5234V26.3516C130.938 27 131.156 27.3984 131.594 27.5469C131.719 27.5938 131.867 27.6328 132.039 27.6641C132.211 27.6953 132.363 27.7344 132.496 27.7812C132.637 27.8203 132.746 27.8672 132.824 27.9219C132.957 28.0234 133.023 28.1875 133.023 28.4141C133.023 28.6953 132.965 28.9102 132.848 29.0586C132.691 29.0195 132.441 29 132.098 29H128.359C127.609 29 127.129 28.8672 126.918 28.6016C126.832 28.5 126.789 28.3828 126.789 28.25C126.789 27.9141 126.848 27.6719 126.965 27.5234C127.16 27.5859 127.371 27.6172 127.598 27.6172C127.824 27.6172 127.996 27.5352 128.113 27.3711C128.238 27.207 128.309 26.9062 128.324 26.4688V19.3203C128.324 17.9922 127.93 17.25 127.141 17.0938C126.898 17.0469 126.605 17.0234 126.262 17.0234C125.918 17.0234 125.543 17.0703 125.137 17.1641C124.73 17.2578 124.344 17.3828 123.977 17.5391C123.273 17.8281 122.668 18.1953 122.16 18.6406V26.3516C122.16 26.9922 122.383 27.3906 122.828 27.5469C122.945 27.5938 123.09 27.6328 123.262 27.6641C123.434 27.6953 123.59 27.7344 123.73 27.7812C123.871 27.8203 123.98 27.8672 124.059 27.9219C124.191 28.0234 124.258 28.1875 124.258 28.4141C124.258 28.6875 124.195 28.9023 124.07 29.0586ZM143.324 22.5312C143.324 21.5781 143.418 20.7227 143.605 19.9648C143.793 19.207 144.051 18.5391 144.379 17.9609C144.707 17.3828 145.094 16.8906 145.539 16.4844C145.984 16.0703 146.461 15.7344 146.969 15.4766C147.961 14.9688 149.051 14.7148 150.238 14.7148C151.762 14.7148 153.055 15.2695 154.117 16.3789C155.297 17.5977 155.887 19.207 155.887 21.207C155.887 23.832 155.172 25.875 153.742 27.3359C152.5 28.5938 151.012 29.2227 149.277 29.2227C147.465 29.2227 146.012 28.5859 144.918 27.3125C143.855 26.0859 143.324 24.4922 143.324 22.5312ZM149.969 27.3125C150.492 27.3125 150.961 27.1914 151.375 26.9492C151.789 26.6992 152.141 26.3594 152.43 25.9297C153.008 25.0391 153.297 23.8828 153.297 22.4609C153.297 20.8984 152.992 19.5703 152.383 18.4766C151.695 17.2188 150.707 16.5898 149.418 16.5898C148.379 16.5898 147.547 16.9883 146.922 17.7852C146.258 18.6289 145.926 19.8086 145.926 21.3242C145.926 23.2227 146.344 24.7227 147.18 25.8242C147.93 26.8164 148.859 27.3125 149.969 27.3125ZM166.258 29.1172L162.367 28.9883H159.402C158.996 28.9883 158.656 28.9219 158.383 28.7891C158.109 28.6484 157.973 28.4766 157.973 28.2734C157.973 27.8984 158.031 27.6367 158.148 27.4883C158.414 27.5664 158.695 27.6055 158.992 27.6055C159.289 27.6055 159.531 27.5859 159.719 27.5469C159.914 27.5078 160.086 27.4258 160.234 27.3008C160.578 27.0195 160.75 26.5312 160.75 25.8359V13.8945C160.75 13.168 160.309 12.7148 159.426 12.5352C158.863 12.418 158.5 12.293 158.336 12.1602C158.18 12.0195 158.102 11.8672 158.102 11.7031C158.102 11.3438 158.164 11.1016 158.289 10.9766C158.43 11.0156 158.562 11.0352 158.688 11.0352C158.688 11.0352 159.848 11.0352 162.168 11.0352C162.527 11.0352 163.012 11.0156 163.621 10.9766C164.238 10.9375 165.094 10.918 166.188 10.918C167.289 10.918 168.273 11.0195 169.141 11.2227C170.016 11.4258 170.734 11.7109 171.297 12.0781C172.375 12.7891 172.914 13.7891 172.914 15.0781C172.914 16.5469 172.297 17.7344 171.062 18.6406C170.602 18.9766 170.012 19.2656 169.293 19.5078C171.598 19.6953 173.078 20.5781 173.734 22.1562C173.938 22.6641 174.039 23.2695 174.039 23.9727C174.039 24.668 173.879 25.3438 173.559 26C173.238 26.6484 172.754 27.2031 172.105 27.6641C170.762 28.6328 168.812 29.1172 166.258 29.1172ZM163.48 19.0391L165.25 19.0508C165.602 19.0508 166.02 19.0508 166.504 19.0508C166.996 19.0508 167.477 18.9648 167.945 18.793C168.414 18.6133 168.805 18.375 169.117 18.0781C169.758 17.4688 170.078 16.6875 170.078 15.7344C170.078 14.6484 169.812 13.8516 169.281 13.3438C168.656 12.7266 167.574 12.418 166.035 12.418C164.988 12.418 164.336 12.5156 164.078 12.7109C163.828 12.9062 163.664 13.1367 163.586 13.4023C163.516 13.6602 163.48 14 163.48 14.4219V19.0391ZM166.305 20.5977C165.031 20.5977 164.09 20.6055 163.48 20.6211V26.1758C163.48 26.9648 163.996 27.4062 165.027 27.5C165.348 27.5234 165.793 27.5352 166.363 27.5352C166.934 27.5352 167.531 27.4766 168.156 27.3594C168.781 27.2422 169.32 27.043 169.773 26.7617C170.719 26.168 171.191 25.2266 171.191 23.9375C171.191 21.7109 169.562 20.5977 166.305 20.5977ZM182.84 29.0586C182.676 29.0195 182.426 29 182.09 29H178.117C177.367 29 176.887 28.8672 176.676 28.6016C176.59 28.5 176.547 28.3828 176.547 28.25C176.547 27.9219 176.609 27.6797 176.734 27.5234C176.922 27.5859 177.094 27.6172 177.25 27.6172C177.414 27.6172 177.551 27.5977 177.66 27.5586C177.77 27.5117 177.855 27.4375 177.918 27.3359C178.027 27.1484 178.082 26.7812 178.082 26.2344V18.5703C178.082 17.8359 177.945 17.3789 177.672 17.1992C177.562 17.1289 177.418 17.0938 177.238 17.0938C177.059 17.0938 176.914 17.1211 176.805 17.1758C176.703 17.2305 176.617 17.2695 176.547 17.293C176.484 17.3164 176.43 17.3164 176.383 17.293C176.336 17.2617 176.289 17.2188 176.242 17.1641C176.125 17.0234 176.066 16.8906 176.066 16.7656C176.066 16.6328 176.113 16.4922 176.207 16.3438C176.309 16.1875 176.469 16.0117 176.688 15.8164C176.906 15.6133 177.156 15.4297 177.438 15.2656C178.07 14.8984 178.703 14.7148 179.336 14.7148C180.055 14.7148 180.48 15.1836 180.613 16.1211C180.652 16.3945 180.676 16.6797 180.684 16.9766C181.824 15.9688 183 15.2773 184.211 14.9023C184.617 14.7773 184.984 14.7148 185.312 14.7148C185.648 14.7148 185.922 14.7617 186.133 14.8555C186.352 14.9492 186.523 15.0781 186.648 15.2422C186.883 15.5625 187 15.9727 187 16.4727C187 16.9727 186.977 17.3711 186.93 17.668C186.883 17.9648 186.824 18.2266 186.754 18.4531C186.613 18.9141 186.48 19.207 186.355 19.332C186.137 19.5586 185.844 19.6719 185.477 19.6719C185.102 19.6719 184.914 19.5625 184.914 19.3438C184.914 18.5078 184.879 17.9727 184.809 17.7383C184.676 17.3086 184.426 17.0938 184.059 17.0938C183.691 17.0938 183.359 17.1367 183.062 17.2227C182.766 17.3008 182.477 17.4102 182.195 17.5508C181.625 17.832 181.125 18.1953 180.695 18.6406V26.4336C180.719 27.0508 180.988 27.4258 181.504 27.5586C181.652 27.5977 181.82 27.6328 182.008 27.6641C182.195 27.6953 182.355 27.7344 182.488 27.7812C182.629 27.8203 182.738 27.8672 182.816 27.9219C182.949 28.0234 183.016 28.1875 183.016 28.4141C183.016 28.6953 182.957 28.9102 182.84 29.0586ZM188.688 22.6953C188.688 21.75 188.785 20.9102 188.98 20.1758C189.176 19.4414 189.438 18.7852 189.766 18.207C190.102 17.6211 190.492 17.1094 190.938 16.6719C191.391 16.2344 191.875 15.8711 192.391 15.582C193.406 15.0039 194.406 14.7148 195.391 14.7148C196.375 14.7148 197.164 14.8906 197.758 15.2422C198.352 15.5859 198.836 16.0469 199.211 16.625C199.906 17.7266 200.254 19.1914 200.254 21.0195C200.254 21.6992 199.969 22.0469 199.398 22.0625L191.219 22.2383C191.266 23.9336 191.703 25.1875 192.531 26C193.234 26.6875 194.145 27.0312 195.262 27.0312C196.926 27.0312 198.277 26.6836 199.316 25.9883C199.387 25.9883 199.473 26.0469 199.574 26.1641C199.77 26.3984 199.867 26.6016 199.867 26.7734C199.867 27.1484 199.398 27.6289 198.461 28.2148C197.383 28.8867 196.125 29.2227 194.688 29.2227C192.812 29.2227 191.34 28.625 190.27 27.4297C189.215 26.2578 188.688 24.6797 188.688 22.6953ZM191.289 20.7266C193.539 20.6172 195.598 20.4727 197.465 20.293C197.551 17.8086 196.691 16.5664 194.887 16.5664C193.879 16.5664 193.055 16.957 192.414 17.7383C191.828 18.457 191.453 19.4531 191.289 20.7266ZM206.898 21.0078L206.887 24.0898C206.887 25.3789 206.953 26.1562 207.086 26.4219C207.219 26.6797 207.375 26.8359 207.555 26.8906C207.734 26.9375 207.965 26.9609 208.246 26.9609C208.527 26.9609 208.781 26.9414 209.008 26.9023C209.242 26.8555 209.461 26.7969 209.664 26.7266C209.867 26.6562 210.062 26.5781 210.25 26.4922L210.824 26.2461C210.957 26.1992 211.105 26.3359 211.27 26.6562C211.316 26.7422 211.34 26.8438 211.34 26.9609C211.34 27.0703 211.293 27.2148 211.199 27.3945C211.105 27.5742 210.922 27.7812 210.648 28.0156C210.383 28.2422 210.07 28.4453 209.711 28.625C208.93 29.0234 208.227 29.2227 207.602 29.2227C206.984 29.2227 206.48 29.1875 206.09 29.1172C205.699 29.0469 205.367 28.9062 205.094 28.6953C204.531 28.2578 204.25 27.457 204.25 26.293V17.0703H203.09C202.848 17.0703 202.672 16.9922 202.562 16.8359C202.375 16.5938 202.281 16.3906 202.281 16.2266C202.281 15.9531 202.348 15.8008 202.48 15.7695C203.723 15.5586 204.602 14.6367 205.117 13.0039C205.266 12.5117 205.383 11.9297 205.469 11.2578C205.844 11.1953 206.125 11.1641 206.312 11.1641C206.508 11.1641 206.676 11.2617 206.816 11.457C206.957 11.6523 207.023 11.8789 207.016 12.1367C207.016 12.3945 207.012 12.6367 207.004 12.8633C206.996 13.0898 206.988 13.3359 206.98 13.6016L206.934 15.2422H210.988C211.09 15.4219 211.141 15.6133 211.141 15.8164V16.1797C211.141 16.5078 210.965 16.7773 210.613 16.9883C210.262 17.1914 209.871 17.293 209.441 17.293C209.02 17.293 208.715 17.2891 208.527 17.2812C208.348 17.2656 208.172 17.25 208 17.2344L207.484 17.1641C207.305 17.1484 207.113 17.1328 206.91 17.1172V17.2461L206.898 21.0078ZM217.305 21.0078L217.293 24.0898C217.293 25.3789 217.359 26.1562 217.492 26.4219C217.625 26.6797 217.781 26.8359 217.961 26.8906C218.141 26.9375 218.371 26.9609 218.652 26.9609C218.934 26.9609 219.188 26.9414 219.414 26.9023C219.648 26.8555 219.867 26.7969 220.07 26.7266C220.273 26.6562 220.469 26.5781 220.656 26.4922L221.23 26.2461C221.363 26.1992 221.512 26.3359 221.676 26.6562C221.723 26.7422 221.746 26.8438 221.746 26.9609C221.746 27.0703 221.699 27.2148 221.605 27.3945C221.512 27.5742 221.328 27.7812 221.055 28.0156C220.789 28.2422 220.477 28.4453 220.117 28.625C219.336 29.0234 218.633 29.2227 218.008 29.2227C217.391 29.2227 216.887 29.1875 216.496 29.1172C216.105 29.0469 215.773 28.9062 215.5 28.6953C214.938 28.2578 214.656 27.457 214.656 26.293V17.0703H213.496C213.254 17.0703 213.078 16.9922 212.969 16.8359C212.781 16.5938 212.688 16.3906 212.688 16.2266C212.688 15.9531 212.754 15.8008 212.887 15.7695C214.129 15.5586 215.008 14.6367 215.523 13.0039C215.672 12.5117 215.789 11.9297 215.875 11.2578C216.25 11.1953 216.531 11.1641 216.719 11.1641C216.914 11.1641 217.082 11.2617 217.223 11.457C217.363 11.6523 217.43 11.8789 217.422 12.1367C217.422 12.3945 217.418 12.6367 217.41 12.8633C217.402 13.0898 217.395 13.3359 217.387 13.6016L217.34 15.2422H221.395C221.496 15.4219 221.547 15.6133 221.547 15.8164V16.1797C221.547 16.5078 221.371 16.7773 221.02 16.9883C220.668 17.1914 220.277 17.293 219.848 17.293C219.426 17.293 219.121 17.2891 218.934 17.2812C218.754 17.2656 218.578 17.25 218.406 17.2344L217.891 17.1641C217.711 17.1484 217.52 17.1328 217.316 17.1172V17.2461L217.305 21.0078Z" fill="#616161"/>
<circle cx="20" cy="20" r="20" fill="#515151"/>
<path d="M4.17773 32.235L10.2644 25.3011C9.15243 24.7503 8.09589 24.1081 7.10521 23.3846L13.4748 16.3506C12.6904 15.956 11.9462 15.4925 11.2499 14.9679L19.9999 5L28.7499 14.9679C28.0536 15.4925 27.3094 15.956 26.5251 16.3506L32.8947 23.3846C31.904 24.1081 30.8474 24.7503 29.7354 25.3011L35.8221 32.235C32.1639 36.9589 26.4371 40 19.9999 40C13.5628 40 7.83595 36.9589 4.17773 32.235Z" fill="#8E8E8E"/>
</svg>
