<svg width="75" height="68" viewBox="0 0 75 68" fill="none" xmlns="http://www.w3.org/2000/svg">
<path d="M70.6723 9.37429C64.7285 3.41214 52.6472 0 37.5153 0C22.3835 0 10.3022 3.41214 4.35836 9.37429C2.08378 11.6432 0.606798 14.5928 0.150391 17.7778C-0.306016 20.9628 0.282928 24.2103 1.82831 27.03C2.30341 27.7022 2.93633 28.2467 3.67109 28.6152C4.40586 28.9837 5.21983 29.165 6.04103 29.1429C6.7778 29.1277 7.51147 29.0424 8.23213 28.8879L8.53476 28.8271C9.43057 28.6571 11.4764 28.1107 13.4617 27.6129C15.0233 27.2 16.5002 26.8114 17.0934 26.69C18.599 26.3836 19.9278 25.5043 20.8012 24.2365C21.6746 22.9688 22.0248 21.411 21.7782 19.89C21.6781 19.1777 21.7346 18.4521 21.9437 17.7641C22.1528 17.076 22.5095 16.4422 22.9887 15.9071C24.5019 14.2071 28.2667 12.1429 37.5153 12.1429C46.7397 12.1429 50.4925 14.1707 52.042 15.8707C52.5222 16.4077 52.8794 17.0435 53.0885 17.7337C53.2976 18.4238 53.3536 19.1515 53.2525 19.8657C52.7925 24.1764 56.8842 26.18 59.0631 26.6293C59.6563 26.7507 60.9879 27.1757 62.2711 27.5764C63.8932 28.0864 65.5638 28.6207 66.4596 28.7907H66.7623C68.2997 29.0943 71.1687 29.665 73.1903 26.9571C74.7216 24.1471 75.3039 20.9151 74.8499 17.7452C74.396 14.5753 72.9302 11.6383 70.6723 9.37429ZM71.2655 25.5729C70.2365 26.9571 68.9412 26.7871 67.2344 26.4836H66.9075C66.157 26.3379 64.4864 25.8157 63.0095 25.3543C61.5327 24.8929 60.2858 24.4921 59.5716 24.3343C59.5716 24.3343 55.3347 23.4236 55.6736 20.2057C55.8028 19.1502 55.7043 18.0791 55.3848 17.0651C55.0652 16.0511 54.5321 15.1178 53.8215 14.3286C51.1219 11.2686 45.6381 9.71429 37.5153 9.71429C29.3804 9.71429 23.8724 11.2443 21.1729 14.2557C20.4644 15.0477 19.9352 15.9842 19.6217 17.0008C19.3083 18.0174 19.218 19.0901 19.3571 20.145C19.5267 21.0547 19.3375 21.995 18.8294 22.7674C18.3212 23.5399 17.5339 24.0843 16.6333 24.2857C15.9675 24.4314 14.527 24.8079 12.8685 25.245C11.0164 25.7307 8.92214 26.2893 8.11107 26.4593H7.79633C6.04103 26.8236 4.83048 26.9571 3.76519 25.5729C2.69991 24.1886 0.448286 16.7329 6.04103 11.0864C11.6338 5.44 22.9887 2.42857 37.5153 2.42857C52.042 2.42857 63.4696 5.58571 68.9897 11.0864C74.5098 16.5871 72.3671 24.1036 71.2655 25.5729Z" fill="#60A946"/>
<path d="M45.9891 27.3821V20.6428H43.568V26.9571C42.3641 26.7961 41.1509 26.7149 39.9363 26.7143H35.0941C33.8796 26.7149 32.6664 26.7961 31.4625 26.9571V20.6428H29.0414V27.3821C22.8602 28.763 17.3329 32.2163 13.3716 37.1723C9.4102 42.1282 7.25145 48.2906 7.25146 54.6428V68H67.779V54.6428C67.779 48.2906 65.6203 42.1282 61.6589 37.1723C57.6976 32.2163 52.1703 28.763 45.9891 27.3821ZM65.3579 65.5714H9.67257V54.6428C9.67257 47.8798 12.3509 41.3938 17.1184 36.6116C21.8858 31.8294 28.3519 29.1428 35.0941 29.1428H39.9363C46.6786 29.1428 53.1446 31.8294 57.9121 36.6116C62.6796 41.3938 65.3579 47.8798 65.3579 54.6428V65.5714Z" fill="#60A946"/>
<path d="M37.5153 36.4285C35.3605 36.4285 33.2541 37.0694 31.4624 38.2703C29.6707 39.4711 28.2743 41.1779 27.4497 43.1749C26.6251 45.1718 26.4093 47.3692 26.8297 49.4891C27.2501 51.609 28.2877 53.5563 29.8114 55.0847C31.3351 56.6131 33.2764 57.6539 35.3898 58.0756C37.5032 58.4973 39.6938 58.2809 41.6846 57.4537C43.6754 56.6266 45.377 55.2258 46.5741 53.4286C47.7713 51.6314 48.4103 49.5185 48.4103 47.357C48.4103 44.4586 47.2624 41.6789 45.2192 39.6294C43.176 37.5799 40.4048 36.4285 37.5153 36.4285ZM37.5153 55.857C35.8394 55.857 34.201 55.3585 32.8075 54.4245C31.414 53.4905 30.3279 52.163 29.6865 50.6098C29.0451 49.0567 28.8773 47.3476 29.2043 45.6988C29.5313 44.0499 30.3383 42.5354 31.5234 41.3466C32.7085 40.1579 34.2184 39.3483 35.8622 39.0204C37.5059 38.6924 39.2097 38.8607 40.7581 39.5041C42.3065 40.1474 43.63 41.2369 44.5611 42.6347C45.4922 44.0325 45.9892 45.6759 45.9892 47.357C45.9892 49.6114 45.0964 51.7734 43.5072 53.3674C41.9181 54.9615 39.7627 55.857 37.5153 55.857Z" fill="#60A946"/>
</svg>
