<svg width="118" height="62" viewBox="0 0 118 62" fill="none" xmlns="http://www.w3.org/2000/svg">
<path d="M40.839 0C39.027 0 37.4938 0.859784 36.4717 2.05393C35.4495 3.24807 34.7526 4.77658 34.3345 6.35285L21.279 54.8829C20.7679 56.8413 21.6042 58.7997 22.9051 60.0416C24.206 61.2357 25.9715 62 27.7835 62H98.3109C100.123 62 101.61 61.0924 102.678 59.8983C103.7 58.6564 104.397 57.1756 104.815 55.5994L117.824 7.06934C118.382 5.06317 117.546 3.15254 116.245 1.91063C114.944 0.716487 113.178 0 111.32 0H40.839ZM40.839 2.67488H111.32C112.435 2.67488 113.689 3.15254 114.433 3.9168C115.223 4.63328 115.548 5.4453 115.316 6.35285L102.26 54.8829C101.888 56.1726 101.377 57.3667 100.727 58.131C100.03 58.8952 99.3795 59.3251 98.3109 59.3251H27.7835C26.7149 59.3251 25.4605 58.7997 24.6706 58.0354C23.9273 57.319 23.602 56.5069 23.8343 55.5994L36.8898 7.06934C37.215 5.73189 37.7726 4.58552 38.423 3.82126C39.0735 3.05701 39.7704 2.67488 40.839 2.67488ZM102.214 14.0431C95.6162 17.2912 88.8794 20.8736 82.9324 23.6918C78.3793 25.7458 74.3836 27.8952 69.5517 28.9938C67.6004 28.9938 63.6977 27.131 59.5162 24.3128C55.3347 21.4946 50.7351 17.7689 46.8324 14.4253C46.5536 14.1864 46.2284 14.0909 45.9032 14.0909C44.8346 14.1864 44.37 15.8582 45.2063 16.4792C49.1555 19.8706 53.7086 23.5963 58.0295 26.51C62.3503 29.4237 66.2995 31.6687 69.5517 31.6687C74.7089 30.7612 79.6337 28.2296 84.001 26.1279C90.4126 23.1186 97.614 19.3451 102.864 16.6703C103.515 16.4792 103.979 15.7149 103.793 15.0462C103.654 14.3297 102.864 13.8998 102.214 14.0431ZM57.2861 35.7766L33.7305 45.2342C33.0336 45.4253 32.6154 46.3328 32.8942 47.0493C33.173 47.718 34.0557 48.0524 34.7062 47.718L58.2618 38.2604C58.8658 38.0693 59.2374 37.4006 59.0981 36.7797C58.8193 35.681 58.0295 35.6333 57.2861 35.7766ZM77.7753 36.1109C77.3571 36.6841 77.3107 37.6872 77.9147 38.1171L89.7157 47.527C90.2268 48.0046 91.1095 47.8613 91.5741 47.3359C91.9923 46.7627 91.8993 45.8552 91.3418 45.4253L79.5408 35.9676C78.8903 35.4422 78.2399 35.5855 77.7753 36.1109Z" fill="black"/>
<path d="M0 10.9861C0.0929215 11.6549 0.789833 12.228 1.48674 12.1325H22.4405C23.1375 12.1325 23.7879 11.4638 23.7879 10.7951C23.7879 10.0786 23.1375 9.40986 22.4405 9.40986H1.25444C0.371686 9.45762 0.0464607 10.2219 0 10.9861ZM0 29.8536C0.0929215 30.5223 0.789833 31.0955 1.48674 31H11.9869C12.6373 31 13.2878 30.379 13.2878 29.6626C13.2878 28.9461 12.6373 28.2773 11.9869 28.2773C8.40939 28.2773 4.78546 28.2773 1.25444 28.2773C0.325225 28.4206 0.0464607 29.0416 0 29.8536ZM0 51.396C0.0929215 52.1125 0.789833 52.6857 1.48674 52.5424H9.33861C10.0355 52.5901 10.686 51.9214 10.686 51.2049C10.686 50.4884 10.0355 49.8675 9.33861 49.8675C6.64389 49.8675 3.9027 49.8675 1.25444 49.8675C0.325225 50.0108 0.0464607 50.775 0 51.396Z" fill="#60A946"/>
</svg>
